<svg 
 xmlns="http://www.w3.org/2000/svg"
 xmlns:xlink="http://www.w3.org/1999/xlink"
 width="38px" height="38px">
<defs>
<filter id="Filter_0">
    <feFlood flood-color="rgb(93, 110, 207)" flood-opacity="1" result="floodOut" />
    <feComposite operator="atop" in="floodOut" in2="SourceGraphic" result="compOut" />
    <feBlend mode="normal" in="compOut" in2="SourceGraphic" />
</filter>

</defs>
<g filter="url(#Filter_0)">
<path fill-rule="evenodd"  fill="rgb(0, 0, 0)"
 d="M19.000,2.377 C28.165,2.377 35.623,9.835 35.623,19.000 C35.623,28.164 28.165,35.623 19.000,35.623 C9.835,35.623 2.377,28.164 2.377,19.000 C2.377,9.835 9.835,2.377 19.000,2.377 M19.000,0.002 C8.509,0.002 0.003,8.509 0.003,19.000 C0.003,29.491 8.509,37.997 19.000,37.997 C29.491,37.997 37.997,29.491 37.997,19.000 C37.997,8.509 29.491,0.002 19.000,0.002 L19.000,0.002 ZM29.591,25.352 L29.484,25.027 C29.234,24.280 28.408,23.501 27.648,23.292 L24.839,22.524 C24.079,22.318 22.993,22.597 22.434,23.155 L21.419,24.171 C17.727,23.172 14.830,20.275 13.833,16.583 L14.849,15.567 C15.405,15.011 15.684,13.926 15.477,13.163 L14.712,10.354 C14.506,9.594 13.722,8.768 12.975,8.518 L12.655,8.411 C11.906,8.161 10.837,8.414 10.280,8.972 L8.759,10.494 C8.488,10.762 8.314,11.535 8.314,11.537 C8.263,16.365 10.155,21.015 13.569,24.431 C16.973,27.835 21.607,29.725 26.418,29.683 C26.444,29.683 27.239,29.514 27.511,29.243 L29.032,27.721 C29.589,27.167 29.839,26.098 29.591,25.352 Z"/>
</g>
</svg>