<svg 
 xmlns="http://www.w3.org/2000/svg"
 xmlns:xlink="http://www.w3.org/1999/xlink"
 width="18px" height="18px">
<defs>
<filter id="Filter_0">
    <feFlood flood-color="rgb(255, 255, 255)" flood-opacity="1" result="floodOut" />
    <feComposite operator="atop" in="floodOut" in2="SourceGraphic" result="compOut" />
    <feBlend mode="normal" in="compOut" in2="SourceGraphic" />
</filter>

</defs>
<g filter="url(#Filter_0)">
<path fill-rule="evenodd"  opacity="0.2" fill="rgb(0, 0, 0)"
 d="M17.022,0.989 C16.370,0.329 15.584,-0.002 14.665,-0.002 L3.545,-0.002 C2.627,-0.002 1.841,0.329 1.188,0.989 C0.536,1.649 0.210,2.444 0.210,3.374 L0.210,14.625 C0.210,15.555 0.536,16.350 1.188,17.010 C1.841,17.671 2.627,18.001 3.545,18.001 L14.665,18.001 C15.584,18.001 16.370,17.671 17.022,17.010 C17.674,16.350 18.001,15.555 18.001,14.625 L18.001,3.374 C18.001,2.444 17.674,1.649 17.022,0.989 ZM7.576,10.757 C7.098,11.242 6.519,11.484 5.839,11.484 C5.159,11.484 4.580,11.242 4.102,10.757 C3.623,10.273 3.383,9.687 3.383,9.000 C3.383,8.312 3.623,7.726 4.102,7.242 C4.580,6.757 5.159,6.515 5.839,6.515 C6.519,6.515 7.098,6.757 7.576,7.242 C8.055,7.726 8.294,8.312 8.294,9.000 C8.294,9.687 8.055,10.273 7.576,10.757 ZM14.109,10.757 C13.630,11.242 13.051,11.484 12.371,11.484 C11.692,11.484 11.113,11.242 10.634,10.757 C10.155,10.273 9.916,9.687 9.916,9.000 C9.916,8.312 10.155,7.726 10.634,7.242 C11.113,6.757 11.692,6.515 12.371,6.515 C13.051,6.515 13.630,6.757 14.109,7.242 C14.588,7.726 14.827,8.312 14.827,9.000 C14.827,9.687 14.588,10.273 14.109,10.757 Z"/>
</g>
</svg>