<svg 
 xmlns="http://www.w3.org/2000/svg"
 xmlns:xlink="http://www.w3.org/1999/xlink"
 width="15px" height="15px">
<defs>
<filter id="Filter_0">
    <feFlood flood-color="rgb(128, 128, 128)" flood-opacity="1" result="floodOut" />
    <feComposite operator="atop" in="floodOut" in2="SourceGraphic" result="compOut" />
    <feBlend mode="normal" in="compOut" in2="SourceGraphic" />
</filter>

</defs>
<g filter="url(#Filter_0)">
<path fill-rule="evenodd"  fill="rgb(0, 0, 0)"
 d="M12.188,15.001 L2.812,15.001 C1.258,15.001 -0.001,13.742 -0.001,12.188 L-0.001,2.811 C-0.001,1.258 1.258,-0.002 2.812,-0.002 L12.188,-0.002 C13.742,-0.002 15.001,1.258 15.001,2.811 L15.001,12.188 C15.001,13.742 13.742,15.001 12.188,15.001 ZM10.894,6.828 C10.876,6.738 10.843,6.654 10.818,6.566 C10.784,6.445 10.753,6.322 10.707,6.207 C10.663,6.099 10.606,6.000 10.552,5.898 C10.507,5.812 10.466,5.725 10.414,5.644 C10.347,5.539 10.268,5.443 10.191,5.346 C9.556,4.555 8.593,4.038 7.500,4.038 C6.407,4.038 5.444,4.554 4.809,5.346 C4.732,5.442 4.653,5.539 4.586,5.643 C4.534,5.725 4.492,5.813 4.447,5.899 C4.394,6.001 4.337,6.100 4.293,6.207 C4.246,6.322 4.215,6.445 4.181,6.567 C4.156,6.654 4.123,6.738 4.106,6.828 C4.063,7.046 4.038,7.270 4.038,7.500 C4.038,9.412 5.588,10.962 7.500,10.962 C9.411,10.962 10.962,9.412 10.962,7.500 C10.962,7.270 10.937,7.046 10.894,6.828 ZM13.847,2.811 C13.847,1.897 13.103,1.153 12.188,1.153 L2.812,1.153 C1.897,1.153 1.153,1.897 1.153,2.811 L1.153,5.192 L3.526,5.192 C4.327,3.819 5.799,2.884 7.500,2.884 C9.201,2.884 10.673,3.819 11.474,5.192 L13.847,5.192 L13.847,2.811 ZM10.962,3.460 L10.962,2.307 C10.962,1.989 11.221,1.729 11.539,1.729 L12.693,1.729 C13.011,1.729 13.270,1.989 13.270,2.307 L13.270,3.460 C13.270,3.779 13.011,4.038 12.693,4.038 L11.539,4.038 C11.221,4.038 10.962,3.779 10.962,3.460 ZM7.501,9.700 C6.284,9.700 5.300,8.716 5.300,7.500 C5.300,7.081 5.423,6.694 5.626,6.361 C5.594,6.464 5.572,6.573 5.572,6.687 C5.572,7.304 6.071,7.803 6.687,7.803 C7.304,7.803 7.802,7.302 7.802,6.687 C7.802,6.070 7.303,5.571 6.687,5.571 C6.573,5.571 6.465,5.593 6.361,5.625 C6.694,5.423 7.081,5.300 7.500,5.300 C8.715,5.300 9.701,6.284 9.701,7.500 C9.701,8.716 8.715,9.700 7.501,9.700 Z"/>
</g>
</svg>