<svg xmlns="http://www.w3.org/2000/svg" width="12.907" height="11" viewBox="0 0 12.907 11">
  <defs>
    <style>
      .cls-1 {
        fill-opacity: 0;
        stroke: #fff;
        stroke-linejoin: round;
        stroke-width: 2px;
        fill-rule: evenodd;
      }
    </style>
  </defs>
  <path id="Like_designed_by_Madebyoliver_from_Flaticon.com" data-name="Like designed by Madebyoliver from Flaticon.com" class="cls-1" d="M967.944,5625.68a2.942,2.942,0,0,0-2.966-2.68,3.025,3.025,0,0,0-2.527,1.29,2.905,2.905,0,0,0-2.466-1.29,2.942,2.942,0,0,0-2.966,2.68,2.439,2.439,0,0,0,.093,1.02,4.308,4.308,0,0,0,1.518,2.24l3.819,3.06,3.884-3.06a4.308,4.308,0,0,0,1.518-2.24A2.439,2.439,0,0,0,967.944,5625.68Z" transform="translate(-956.031 -5622)"/>
</svg>
