<svg 
 xmlns="http://www.w3.org/2000/svg"
 xmlns:xlink="http://www.w3.org/1999/xlink"
 width="28px" height="28px">
<defs>
<filter id="Filter_0">
    <feFlood flood-color="rgb(104, 122, 218)" flood-opacity="1" result="floodOut" />
    <feComposite operator="atop" in="floodOut" in2="SourceGraphic" result="compOut" />
    <feBlend mode="normal" in="compOut" in2="SourceGraphic" />
</filter>

</defs>
<g filter="url(#Filter_0)">
<path fill-rule="evenodd"  fill="rgb(0, 0, 0)"
 d="M14.000,0.001 C6.268,0.001 0.001,6.268 0.001,14.000 C0.001,21.731 6.268,27.999 14.000,27.999 C21.731,27.999 27.999,21.731 27.999,14.000 C27.999,6.268 21.731,0.001 14.000,0.001 ZM13.561,9.349 L24.001,9.349 C24.072,9.349 24.141,9.357 24.209,9.369 L18.362,12.731 L13.419,9.363 C13.466,9.357 13.512,9.349 13.561,9.349 ZM5.654,17.295 L5.654,15.843 L10.313,15.843 L10.256,16.314 L10.246,16.401 L10.246,16.489 C10.246,16.771 10.292,17.041 10.376,17.295 L5.654,17.295 ZM10.481,14.452 L4.080,14.452 L4.080,12.999 L10.657,12.999 L10.481,14.452 ZM10.974,10.381 L10.883,11.124 L2.669,11.124 L2.669,9.671 L11.104,9.671 C11.029,9.896 10.983,10.134 10.974,10.381 ZM23.275,17.626 L12.835,17.626 C12.522,17.626 12.239,17.500 12.034,17.296 C12.034,17.296 12.034,17.296 12.034,17.295 C11.984,17.246 11.938,17.190 11.898,17.131 C11.897,17.130 11.895,17.128 11.894,17.127 C11.857,17.072 11.825,17.012 11.798,16.951 C11.795,16.945 11.791,16.939 11.788,16.933 C11.763,16.875 11.746,16.813 11.731,16.750 C11.728,16.739 11.723,16.730 11.721,16.719 C11.706,16.644 11.698,16.567 11.698,16.489 L12.085,13.291 L12.120,12.999 L12.424,10.485 C12.424,10.413 12.433,10.343 12.446,10.276 C12.447,10.268 12.447,10.260 12.448,10.253 C12.449,10.254 12.450,10.254 12.451,10.255 C12.484,10.100 12.545,9.956 12.634,9.831 L12.634,10.380 L18.023,14.031 C18.030,14.037 18.038,14.039 18.045,14.044 C18.053,14.049 18.061,14.052 18.069,14.057 C18.112,14.079 18.156,14.096 18.200,14.108 C18.205,14.109 18.209,14.110 18.214,14.110 C18.263,14.122 18.313,14.129 18.362,14.129 L18.362,14.129 C18.363,14.129 18.363,14.129 18.363,14.129 C18.412,14.129 18.462,14.122 18.511,14.110 C18.516,14.110 18.520,14.109 18.525,14.108 C18.569,14.096 18.613,14.079 18.656,14.057 C18.664,14.052 18.672,14.049 18.680,14.044 C18.687,14.039 18.695,14.037 18.702,14.031 L25.123,10.325 C25.130,10.378 25.139,10.430 25.139,10.485 L24.412,16.489 C24.412,17.117 23.903,17.626 23.275,17.626 Z"/>
</g>
</svg>