<svg 
 xmlns="http://www.w3.org/2000/svg"
 xmlns:xlink="http://www.w3.org/1999/xlink"
 width="11px" height="11px">
<defs>
<filter id="Filter_0">
    <feFlood flood-color="rgb(255, 255, 255)" flood-opacity="1" result="floodOut" />
    <feComposite operator="atop" in="floodOut" in2="SourceGraphic" result="compOut" />
    <feBlend mode="normal" in="compOut" in2="SourceGraphic" />
</filter>

</defs>
<g filter="url(#Filter_0)">
<path fill-rule="evenodd"  fill="rgb(0, 0, 0)"
 d="M10.995,8.680 C11.018,8.858 10.964,9.014 10.832,9.146 L9.283,10.684 C9.213,10.762 9.122,10.828 9.009,10.882 C8.897,10.936 8.786,10.971 8.677,10.987 C8.669,10.987 8.646,10.989 8.607,10.993 C8.569,10.997 8.518,10.998 8.456,10.998 C8.309,10.998 8.070,10.973 7.740,10.923 C7.410,10.872 7.006,10.748 6.529,10.550 C6.051,10.352 5.510,10.055 4.904,9.659 C4.299,9.263 3.654,8.719 2.971,8.028 C2.428,7.492 1.977,6.979 1.620,6.490 C1.263,6.000 0.976,5.548 0.758,5.133 C0.541,4.717 0.378,4.340 0.269,4.002 C0.160,3.664 0.087,3.373 0.048,3.128 C0.009,2.884 -0.007,2.692 0.001,2.552 C0.009,2.412 0.013,2.334 0.013,2.318 C0.028,2.210 0.063,2.099 0.118,1.987 C0.172,1.874 0.238,1.783 0.316,1.713 L1.865,0.163 C1.973,0.055 2.098,0.000 2.237,0.000 C2.338,0.000 2.428,0.029 2.505,0.087 C2.583,0.146 2.649,0.218 2.703,0.303 L3.949,2.668 C4.019,2.793 4.038,2.929 4.007,3.076 C3.976,3.223 3.910,3.348 3.809,3.449 L3.239,4.020 C3.223,4.035 3.210,4.061 3.198,4.095 C3.186,4.131 3.180,4.159 3.180,4.183 C3.212,4.346 3.281,4.533 3.390,4.742 C3.483,4.929 3.627,5.155 3.821,5.424 C4.015,5.692 4.291,6.000 4.648,6.350 C4.997,6.707 5.308,6.985 5.580,7.183 C5.851,7.381 6.078,7.526 6.261,7.620 C6.443,7.713 6.583,7.769 6.680,7.789 L6.826,7.818 C6.841,7.818 6.866,7.812 6.901,7.800 C6.936,7.789 6.962,7.775 6.977,7.760 L7.641,7.084 C7.780,6.960 7.944,6.898 8.130,6.898 C8.262,6.898 8.367,6.921 8.444,6.967 L8.456,6.967 L10.704,8.296 C10.867,8.397 10.964,8.525 10.995,8.680 Z"/>
</g>
</svg>