<svg 
 xmlns="http://www.w3.org/2000/svg"
 xmlns:xlink="http://www.w3.org/1999/xlink"
 width="13px" height="12px">
<defs>
<filter id="Filter_0">
    <feFlood flood-color="rgb(57, 56, 56)" flood-opacity="1" result="floodOut" />
    <feComposite operator="atop" in="floodOut" in2="SourceGraphic" result="compOut" />
    <feBlend mode="normal" in="compOut" in2="SourceGraphic" />
</filter>

</defs>
<g filter="url(#Filter_0)">
<path fill-rule="evenodd"  fill="rgb(0, 0, 0)"
 d="M12.982,0.390 L9.102,10.918 C9.004,11.184 8.785,11.390 8.511,11.473 C8.237,11.556 7.940,11.506 7.709,11.339 L4.081,8.722 L12.415,0.584 L2.990,7.934 L0.336,6.020 C0.094,5.846 -0.032,5.554 0.007,5.259 C0.046,4.964 0.245,4.714 0.525,4.608 L12.602,0.020 C12.710,-0.021 12.831,0.004 12.912,0.084 C12.994,0.164 13.021,0.283 12.982,0.390 ZM3.867,11.901 C3.689,12.014 3.465,12.032 3.270,11.949 C3.076,11.865 2.936,11.691 2.897,11.484 L2.382,8.692 L2.360,8.571 L5.496,10.798 C5.522,10.834 4.585,11.442 3.867,11.901 Z"/>
</g>
</svg>