<svg 
 xmlns="http://www.w3.org/2000/svg"
 xmlns:xlink="http://www.w3.org/1999/xlink"
 width="18px" height="18px">
<defs>
<filter id="Filter_0">
    <feFlood flood-color="rgb(255, 255, 255)" flood-opacity="1" result="floodOut" />
    <feComposite operator="atop" in="floodOut" in2="SourceGraphic" result="compOut" />
    <feBlend mode="normal" in="compOut" in2="SourceGraphic" />
</filter>

</defs>
<g filter="url(#Filter_0)">
<path fill-rule="evenodd"  opacity="0.2" fill="rgb(0, 0, 0)"
 d="M14.560,-0.002 L3.440,-0.002 C1.597,-0.002 0.104,1.509 0.104,3.374 L0.104,14.625 C0.104,16.490 1.597,18.001 3.440,18.001 L14.560,18.001 C16.403,18.001 17.896,16.490 17.896,14.625 L17.896,3.374 C17.896,1.509 16.403,-0.002 14.560,-0.002 ZM13.426,6.979 L13.433,7.266 C13.433,10.195 11.229,13.571 7.200,13.571 C5.964,13.571 4.813,13.203 3.843,12.575 C4.015,12.595 4.189,12.607 4.366,12.607 C5.392,12.607 6.337,12.252 7.086,11.659 C6.128,11.642 5.319,10.999 5.040,10.119 C5.175,10.145 5.310,10.158 5.453,10.158 C5.653,10.158 5.846,10.131 6.030,10.081 C5.028,9.876 4.273,8.981 4.273,7.908 L4.273,7.880 C4.569,8.047 4.905,8.146 5.265,8.158 C4.677,7.761 4.291,7.082 4.291,6.314 C4.291,5.908 4.398,5.527 4.587,5.200 C5.666,6.541 7.281,7.423 9.101,7.516 C9.063,7.354 9.044,7.183 9.044,7.010 C9.044,5.787 10.025,4.795 11.235,4.795 C11.865,4.795 12.434,5.064 12.834,5.494 C13.333,5.395 13.802,5.210 14.226,4.957 C14.062,5.475 13.715,5.909 13.262,6.183 C13.704,6.131 14.128,6.010 14.520,5.834 C14.227,6.278 13.854,6.668 13.426,6.979 Z"/>
</g>
</svg>