<svg xmlns="http://www.w3.org/2000/svg" xmlns:xlink="http://www.w3.org/1999/xlink" width="15" height="11" viewBox="0 0 15 11">
  <defs>
    <style>
      .cls-1 {
        fill-rule: evenodd;
        filter: url(#filter);
      }
    </style>
    <filter id="filter" x="1417" y="5433" width="15" height="11" filterUnits="userSpaceOnUse">
      <feFlood result="flood" flood-color="#bfc9ff"/>
      <feComposite result="composite" operator="in" in2="SourceGraphic"/>
      <feBlend result="blend" in2="SourceGraphic"/>
    </filter>
  </defs>
  <path id="Comments_designed_by_Dave_Gandy_from_Flaticon.com" data-name="Comments designed by Dave Gandy from Flaticon.com" class="cls-1" d="M1425.85,5440.46a5.305,5.305,0,0,0,2.15-1.45,2.952,2.952,0,0,0,0-4.02,5.305,5.305,0,0,0-2.15-1.45,8.383,8.383,0,0,0-5.92,0,5.268,5.268,0,0,0-2.14,1.45,3.03,3.03,0,0,0-.79,2.01,2.918,2.918,0,0,0,.6,1.75,4.645,4.645,0,0,0,1.63,1.38c-0.06.13-.12,0.24-0.17,0.35a2.73,2.73,0,0,1-.21.3c-0.08.09-.15,0.17-0.19,0.22a2.158,2.158,0,0,1-.22.23c-0.1.1-.16,0.17-0.19,0.2a0.086,0.086,0,0,0-.04.03c-0.02.03-.03,0.05-0.03,0.04a0.068,0.068,0,0,0-.04.04,0.52,0.52,0,0,0-.03.05l-0.02.03a0.109,0.109,0,0,0-.01.05,0.09,0.09,0,0,0-.01.05,0.433,0.433,0,0,0,.01.05,0.253,0.253,0,0,0,.1.17,0.272,0.272,0,0,0,.17.06h0.02c0.28-.04.52-0.08,0.72-0.13a7.059,7.059,0,0,0,2.33-1,8.275,8.275,0,0,0,1.47.13A7.912,7.912,0,0,0,1425.85,5440.46Zm-4.68-.65-0.37.24c-0.16.1-.33,0.2-0.52,0.31l0.29-.66-0.81-.43a3.814,3.814,0,0,1-1.24-1.04,1.988,1.988,0,0,1-.45-1.23,2.131,2.131,0,0,1,.66-1.49,4.46,4.46,0,0,1,1.77-1.1,7.2,7.2,0,0,1,4.79,0,4.46,4.46,0,0,1,1.77,1.1,2.033,2.033,0,0,1,0,2.98,4.46,4.46,0,0,1-1.77,1.1,6.992,6.992,0,0,1-2.4.41,8.1,8.1,0,0,1-1.28-.11Zm10.23,0.94a2.9,2.9,0,0,0,.6-1.75,2.945,2.945,0,0,0-.63-1.8,4.975,4.975,0,0,0-1.71-1.39,3.762,3.762,0,0,1,.2,1.19,3.806,3.806,0,0,1-.56,1.98,5.39,5.39,0,0,1-1.61,1.66,7.836,7.836,0,0,1-2.21,1.01,9.638,9.638,0,0,1-2.59.35c-0.16,0-.41-0.01-0.73-0.03a7.45,7.45,0,0,0,3.95,1.03,8.275,8.275,0,0,0,1.47-.13,7.059,7.059,0,0,0,2.33,1c0.2,0.05.44,0.09,0.72,0.13a0.261,0.261,0,0,0,.18-0.06,0.257,0.257,0,0,0,.11-0.17c0-.03,0-0.05.01-0.05s0-.02-0.01-0.05a0.175,0.175,0,0,1-.01-0.05l-0.02-.03c-0.01-.02-0.02-0.03-0.03-0.05l-0.04-.04a0.068,0.068,0,0,1-.03-0.04,0.4,0.4,0,0,0-.04-0.03c-0.03-.03-0.09-0.1-0.19-0.2s-0.17-.17-0.22-0.23-0.11-.13-0.19-0.22a2.73,2.73,0,0,1-.21-0.3c-0.05-.11-0.11-0.22-0.17-0.35A4.645,4.645,0,0,0,1431.4,5440.75Z" transform="translate(-1417 -5433)"/>
</svg>
